<?xml version="1.0" encoding="utf-8"?>
<!-- Generator: Adobe Illustrator 16.0.0, SVG Export Plug-In . SVG Version: 6.00 Build 0)  -->
<!DOCTYPE svg PUBLIC "-//W3C//DTD SVG 1.1//EN" "http://www.w3.org/Graphics/SVG/1.1/DTD/svg11.dtd">
<svg version="1.1" id="Calque_1" xmlns="http://www.w3.org/2000/svg" xmlns:xlink="http://www.w3.org/1999/xlink" x="0px" y="0px"
	 width="382.169px" height="99.445px" viewBox="0 0 382.169 99.445" enable-background="new 0 0 382.169 99.445"
	 xml:space="preserve">
<g>
	<path fill="#1F2041" d="M112.023,83.938l9.279-58.4h11.602l-1.361,8.4h2.801l-3.201,2.801c0.588-3.787,2.094-6.733,4.521-8.841
		c2.426-2.106,5.451-3.159,9.08-3.159c4.426,0,7.719,1.559,9.879,4.68c2.16,3.119,2.84,7.293,2.041,12.52l-1.84,11.2
		c-0.535,3.468-1.615,6.493-3.24,9.08c-1.629,2.587-3.641,4.587-6.041,6c-2.4,1.412-5.094,2.12-8.08,2.12
		c-3.627,0-6.307-1.053-8.039-3.16c-1.734-2.106-2.309-5.053-1.721-8.84l2.4,2.8h-2.801l-1.359,10.8l-1.92,12H112.023z
		 M134.824,59.938c2.24,0,4.053-0.626,5.439-1.88c1.387-1.253,2.266-3.026,2.641-5.319l1.68-10.4
		c0.371-2.347,0.053-4.133-0.961-5.36c-1.014-1.226-2.639-1.84-4.879-1.84c-2.188,0-3.988,0.628-5.4,1.88
		c-1.414,1.254-2.309,3.027-2.68,5.32l-1.68,10.4c-0.375,2.293-0.041,4.066,1,5.319C131.023,59.312,132.637,59.938,134.824,59.938z"
		/>
	<path fill="#1F2041" d="M159.943,83.938l1.52-9.6h12.4c2.238,0,4.066-0.561,5.479-1.68c1.414-1.121,2.254-2.668,2.521-4.641
		l0.238-1.68l1.521-9.2h-3.521l3.922-2.8c-0.588,3.733-2.121,6.667-4.602,8.8c-2.479,2.134-5.533,3.2-9.16,3.2
		c-4.268,0-7.453-1.492-9.559-4.48c-2.107-2.986-2.76-6.96-1.961-11.92l3.84-24.4h12l-3.68,23.201c-0.373,2.293-0.039,4.066,1,5.319
		c1.041,1.254,2.627,1.88,4.76,1.88s3.881-0.626,5.24-1.88c1.359-1.253,2.227-3.026,2.6-5.319l3.68-23.201h12l-6.639,42.881
		c-0.748,4.8-2.988,8.586-6.721,11.359c-3.734,2.773-8.428,4.16-14.08,4.16H159.943z"/>
	<path fill="#1F2041" d="M217.141,70.338c-3.893,0-7.188-0.734-9.879-2.2c-2.693-1.466-4.627-3.521-5.801-6.16
		s-1.492-5.72-0.959-9.239l1.68-10.4c0.586-3.572,1.893-6.666,3.92-9.28c2.025-2.612,4.613-4.652,7.76-6.12
		c3.146-1.467,6.666-2.199,10.561-2.199c5.812,0,10.213,1.467,13.199,4.399c2.986,2.934,4.188,6.934,3.6,12h-12
		c0.16-1.866-0.332-3.333-1.479-4.399c-1.148-1.066-2.814-1.601-5-1.601c-2.4,0-4.334,0.614-5.801,1.84
		c-1.467,1.228-2.387,3.014-2.76,5.36l-1.68,10.4c-0.375,2.293-0.014,4.066,1.08,5.319c1.092,1.254,2.84,1.88,5.24,1.88
		c2.186,0,4.012-0.52,5.479-1.561c1.467-1.039,2.441-2.52,2.92-4.439h12c-1.014,5.067-3.492,9.067-7.439,12
		C227.834,68.871,222.953,70.338,217.141,70.338z"/>
	<path fill="#1F2041" d="M258.9,70.338c-3.895,0-7.16-0.734-9.801-2.2c-2.639-1.466-4.533-3.521-5.68-6.16s-1.453-5.72-0.92-9.239
		l1.68-10.4c0.588-3.521,1.867-6.6,3.842-9.24c1.971-2.641,4.52-4.692,7.639-6.16c3.121-1.467,6.627-2.199,10.52-2.199
		c3.947,0,7.24,0.732,9.881,2.199c2.641,1.468,4.533,3.52,5.68,6.16s1.426,5.72,0.84,9.24l-1.68,10.4
		c-0.533,3.52-1.801,6.6-3.801,9.239s-4.547,4.694-7.639,6.16C266.367,69.604,262.848,70.338,258.9,70.338z M260.58,59.938
		c2.348,0,4.227-0.626,5.641-1.88c1.412-1.253,2.307-3.026,2.68-5.319l1.68-10.4c0.373-2.347,0.041-4.133-1-5.36
		c-1.039-1.226-2.732-1.84-5.08-1.84c-2.293,0-4.16,0.614-5.6,1.84c-1.439,1.228-2.348,3.014-2.721,5.36l-1.68,10.4
		c-0.373,2.293-0.027,4.066,1.041,5.319C256.607,59.312,258.287,59.938,260.58,59.938z"/>
	<path fill="#1F2041" d="M282.34,69.537l6.959-44H300.9l-1.361,8.4h3.521l-3.922,2.801c0.588-3.733,2.121-6.667,4.602-8.801
		c2.479-2.133,5.531-3.199,9.16-3.199c4.266,0,7.451,1.493,9.559,4.479c2.107,2.987,2.76,6.96,1.961,11.92l-4.48,28.399h-12
		l4.32-27.199c0.373-2.293,0.053-4.066-0.961-5.32c-1.014-1.252-2.613-1.88-4.799-1.88c-2.135,0-3.881,0.628-5.24,1.88
		c-1.359,1.254-2.229,3.027-2.6,5.32l-4.32,27.199H282.34z"/>
</g>
<rect x="334.922" y="11.602" fill="#4DDB80" width="28.518" height="28.52"/>
<g>
	<path fill="#1F2041" d="M341.246,33.297v-7.129h-2.975v-2.75h2.975v-1.527c0-1.047,0.355-1.885,1.068-2.516
		c0.713-0.633,1.646-0.947,2.801-0.947h3.279v2.646h-3.178c-0.271,0-0.492,0.086-0.662,0.256s-0.254,0.391-0.254,0.662v1.426h4.094
		v2.75h-4.094v7.129H341.246z"/>
	<path fill="#1F2041" d="M350.146,33.297V22.094H353v2.139h0.773l-0.875,1.305c0-1.209,0.277-2.119,0.834-2.73
		s1.371-0.916,2.445-0.916c1.234,0,2.195,0.373,2.883,1.119c0.686,0.748,1.027,1.801,1.027,3.158v0.916h-3.26v-0.713
		c0-0.611-0.166-1.086-0.498-1.426c-0.334-0.34-0.777-0.51-1.334-0.51c-0.584,0-1.029,0.17-1.334,0.51
		c-0.307,0.34-0.459,0.814-0.459,1.426v6.926H350.146z"/>
</g>
<g>
	<rect x="29.939" y="40.525" fill="#4DDB80" width="4.776" height="4.774"/>
	<polygon fill="#4DDB80" points="29.934,26.213 34.706,26.213 34.706,16.669 63.353,16.669 63.353,11.894 34.704,11.894 
		34.704,16.664 29.931,16.664 29.931,26.205 25.159,26.205 25.159,40.529 29.934,40.529 	"/>
	<rect x="39.379" y="27.931" fill="#4DDB80" width="4.775" height="9.548"/>
	<rect x="53.703" y="27.931" fill="#4DDB80" width="4.774" height="9.548"/>
	<polygon fill="#4DDB80" points="15.675,64.325 20.405,64.325 20.405,59.603 25.122,59.603 25.122,54.879 34.747,54.879 
		34.747,50.061 44.226,50.061 44.226,54.789 48.961,54.789 48.961,50.061 63.275,50.061 63.275,59.679 68.1,59.679 68.1,54.789 
		72.829,54.789 72.829,50.055 68.1,50.055 68.097,50.055 63.378,50.055 63.378,45.3 68.126,45.3 68.126,40.525 63.351,40.525 
		63.351,45.287 34.731,45.287 34.731,50.055 25.122,50.055 25.122,54.866 20.388,54.866 20.388,59.591 15.671,59.591 15.671,64.325 
		10.853,64.325 10.853,78.752 15.666,78.752 15.666,83.477 68.108,83.477 68.108,78.742 15.675,78.742 	"/>
	<rect x="68.126" y="74.124" fill="#4DDB80" width="4.734" height="4.734"/>
	<rect x="39.425" y="54.795" fill="#4DDB80" width="4.734" height="4.734"/>
	<rect x="29.821" y="59.705" fill="#4DDB80" width="4.735" height="4.734"/>
	<rect x="34.467" y="64.527" fill="#4DDB80" width="24.186" height="4.735"/>
	<rect x="58.719" y="59.794" fill="#4DDB80" width="4.736" height="4.733"/>
	<rect x="72.826" y="54.795" fill="#4DDB80" width="4.734" height="4.734"/>
	<rect x="77.569" y="59.511" fill="#4DDB80" width="4.734" height="4.735"/>
	<polygon fill="#4DDB80" points="87.037,64.254 82.304,64.254 82.304,78.852 77.597,78.852 77.597,64.254 72.862,64.254 
		72.862,78.858 77.59,78.858 77.59,83.587 82.326,83.587 82.326,78.857 87.037,78.857 	"/>
	<polygon fill="#4DDB80" points="68.134,40.529 72.907,40.529 72.907,26.205 68.136,26.205 68.136,16.664 63.36,16.664 
		63.36,26.213 68.134,26.213 	"/>
</g>
</svg>
