<svg class="intro-logo" xmlns="http://www.w3.org/2000/svg" viewBox="0 0 213 52" fill="var(--color-body)"><path fill="var(--color-body)" d="M69.1 34.7c0 1.3-.5 2.7-1.6 2.7s-1.6-1.1-1.6-4.6v-7.1c0-7.3-1.5-13.5-12.1-13.5-6.5.0-13.4 2.2-13.4 8.4.0 4.7 6.9 6.1 9.9 2.6-1-1.3-1.7-3-1.7-4.5.0-2.9 2.2-3.5 4.4-3.5 2.4.0 3.9 1.4 3.9 8.6v1.3l-4.1 1.1c-7.9 2.2-12.9 4.9-12.9 9.1.0 3.9 2.2 6 7.1 6 4.6.0 8.7-2.4 11-7.7h.5c.9 5 2.4 7.7 6.8 7.7 3.1.0 6.6-1.5 6.1-6.7h-2.3v.1zm-17.8 1.8c-1.7.0-2.6-.9-2.6-2.1.0-3.2 2.3-4.7 8.2-6.5.1 4-2.5 8.6-5.6 8.6zM24.8 12.3c-3.6.0-9.6 1.2-10.6 9.1h-.9v-9.1L.9 15.2v2.4h6v31l-5.4.4v2.4h20.2V49l-6.2-.5V37.3c1.3 1.9 4 4.2 8.7 4.2 5.1.0 12.3-4.4 12.3-14.2.0-9.2-5.1-15-11.7-15zm-2.4 25.2c-2.8.0-5.3-1.5-6.5-5.7v-8.9c.1-1.3 1.5-5.4 5-5.4 4.4.0 7 5.1 7 10.5-.1 4.7-2 9.5-5.5 9.5zm155-21.6h5.8v32c0 3.4-4.3.4-5.1-3.1H177c-1.3 3.5-.2 6.9 3.1 6.9 3.2.0 7.4-1.7 7.4-8.9l.1-30.6-10.2 1.4v2.3zm-6 17.9c-2.4.0-3.7 1.3-3.7 3.7.0 2.4 1.3 3.7 3.7 3.7 2.4.0 3.7-1.3 3.7-3.7.0-2.4-1.4-3.7-3.7-3.7zM95.8 37.4c-4.9-1.1-12.3-1.1-15.9-1.6l1.2-2.4c1.4.4 3.1.6 5 .6 8.6.0 13.3-4.9 13.3-11.3.0-4.4-3-8-7.8-9.6l.2-.6c1.9.4 3.9.7 5.4.7 2.3.0 4-.8 4-3.4.0-1.8-1.3-4.1-3.3-6.2-3.3 3.6-6.2 7.3-10.7 8.7-.2-.1-.4-.1-.6-.1-8.6.0-13 4.8-13 11.3.0 4 1.8 7.4 5.7 9.2l-5.5 4.6c.4.8 1.7 2.9 6.5 4.4v.7c-4.4.6-7 1.9-7 3.7.0 3.8 7 5.7 12.3 5.7 9.1.0 16.6-2.3 16.9-7.9.0-3.6-1.6-5.4-6.7-6.5zm-10-22.2c3.3.0 4.8 2.4 4.8 7.4.0 5.7-1.1 8.5-4 8.5-3.4.0-4.8-2.9-4.8-8.4.1-5.3 1.2-7.5 4-7.5zm5.1 32.5c-6.2.0-10.5-1.5-10.5-3.2.0-.6.6-1.3 1.8-2.2l.9.2c9.4 1.8 14.8 1.3 14.8 3 .1 1.4-2.5 2.2-7 2.2zM199 21.5c-2.3-1.4-3.3-2.6-3.3-4 0-1.6 1.1-3.3 4-3.3 4.3.0 8.1 3.6 10.6 8.9h1.1v-8.4c-3-1.6-6.4-2.4-9.5-2.4-5.3.0-9.8 2.4-9.8 7.3.0 3.9 3.1 6.7 6.2 8.4 5.8 3.2 11 4.4 11 7.8.0 2.3-2.2 3.6-4.7 3.6-5.2.0-8.9-2.7-10.9-10.2h-1.1v9.4c2.7 1.8 6.5 2.8 10.1 2.8 5.4.0 10.2-2.2 10.2-7.7.1-6.5-7.5-8.3-13.9-12.2zM185.7 1.8c-2 0-2.9 1.1-2.9 2.9.0 1.9 1 2.9 2.9 2.9 1.8.0 2.9-1 2.9-2.9s-1.1-2.9-2.9-2.9zM126.1 29.1c.1.4.1.7.1 1.1.0 3.9-2.8 6.1-6.8 6.1-3.9.0-6.7-2.8-7.7-8.5l17.2-4.3c-.2-7.7-4.7-11.3-12.9-11.3-6.2.0-13 4.5-13 14.4.0 7.5 4.9 14.6 13.9 14.6 8 0 12.3-5.3 12.3-11.2.0-.5-.1-1-.1-1.5l-3 .6zm-14.7-5.8c0-5.2 2.2-8 5.3-8 2.9.0 3.8 3.2 3.8 5.6.0 1.5-1.9 1.8-5.1 2.9l-4 1.3v-1.8zM147 4.7l6.2.5v10.6c-1.5-2.1-4-3.6-8.4-3.6-5.1.0-12.3 4.4-12.3 14.2.0 9.1 5.1 14.9 11.7 14.9 3.6.0 9.6-1.2 10.6-9.1h1l1.9 8.3h4V.8l-14.8 1.5v2.4h.1zm6.2 26c-.1 1.2-1.1 5.4-5.9 5.4-4 0-6-4.9-6-10.5.0-4.7 1.9-9.5 5.4-9.5 2.8.0 5.3 1.5 6.5 5.7v8.9z"></path></svg>
